<?xml version='1.0' encoding='utf-8'?>
<svg xmlns="http://www.w3.org/2000/svg" enable-background="new 0 0 61.35 48.2" version="1.1" viewBox="0 0 61.35 48.2">
<g clip-rule="evenodd" fill-rule="evenodd">
			<radialGradient id="h" cx="30.675" cy="47.6" r="30.686" gradientTransform="matrix(1 0 0 -.2894 0 61.377)" gradientUnits="userSpaceOnUse">
			<stop stop-opacity=".5686" offset="0"/>
			<stop stop-opacity="0" offset="1"/>
		</radialGradient>
		<path d="m9 41.3c6-1.733 13.233-2.6 21.7-2.6 8.434 0 15.649 0.866 21.649 2.6 6 1.767 9 3.867 9 6.3 0 2.434-3 4.517-9 6.25-5.965 1.733-13.182 2.6-21.649 2.6s-15.7-0.867-21.7-2.6-9-3.816-9-6.25c0-2.466 3-4.567 9-6.3z" fill="url(#h)"/>
			<radialGradient id="i" cx="29.8" cy="47.35" r="22.75" gradientTransform="matrix(1 0 0 -.2973 0 61.424)" gradientUnits="userSpaceOnUse">
			<stop stop-opacity=".5686" offset=".4118"/>
			<stop stop-opacity="0" offset=".8471"/>
		</radialGradient>
		<path d="m52.55 47.35c0 1.867-2.217 3.45-6.649 4.75-4.434 1.334-9.801 2-16.101 2-6.267 0-11.633-0.666-16.1-2-4.434-1.3-6.65-2.883-6.65-4.75 0-1.866 2.217-3.466 6.65-4.8 4.466-1.333 9.833-2 16.1-2 6.3 0 11.667 0.667 16.101 2 4.432 1.334 6.649 2.933 6.649 4.8z" fill="url(#i)"/>
		<linearGradient id="j" x1="9.4502" x2="50.2" y1="37.725" y2="37.725" gradientUnits="userSpaceOnUse">
			<stop stop-color="#BB9C56" offset="0"/>
			<stop stop-color="#937B45" offset=".2588"/>
			<stop stop-color="#77633A" offset=".4784"/>
			<stop stop-color="#6C5B36" offset=".6"/>
			<stop stop-color="#746139" offset=".7294"/>
			<stop stop-color="#887244" offset=".9294"/>
			<stop stop-color="#907A48" offset="1"/>
		</linearGradient>
		<path d="m10.9 26.8l-1.45-3.4 20.4 2.85 20.35-2.85-1.45 3.4c-1 2.667-1.616 5.017-1.85 7.05-0.4 3.267-0.851 7.5-1.351 12.7l-0.449 0.85c-0.466 0.699-1.149 1.333-2.05 1.899-2.833 1.834-7.217 2.75-13.15 2.75h-0.15c-5.933 0-10.317-0.916-13.15-2.75-0.9-0.566-1.583-1.2-2.05-1.899l-0.45-0.85-1.3-12.7c-0.233-2.034-0.867-4.383-1.9-7.05z" fill="url(#j)"/>
		<path d="m10.8 26.5l-1.35-3.1 20.4 2.85 20.35-2.85-0.8 1.85c-3.233 1.667-8.417 2.8-15.551 3.4-4.233 0.366-8.316 0.399-12.25 0.1-4.466-0.333-8.066-1.083-10.799-2.25z" fill="#433820"/>
		<linearGradient id="k" x1="4.7002" x2="56.65" y1="21.775" y2="21.775" gradientUnits="userSpaceOnUse">
			<stop stop-color="#7A482C" offset="0"/>
			<stop stop-color="#4C2D1C" offset=".6"/>
			<stop stop-color="#75462B" offset="1"/>
		</linearGradient>
		<path d="m6.05 22.05l-1.35-7 15.85 0.05 2.25 0.85c2.3-0.233 4.934-0.35 7.9-0.35 2.934 0 5.55 0.117 7.85 0.35l2.3-0.85 15.801-0.05-1.351 7c0 1.767-2.399 3.283-7.2 4.55-4.833 1.267-10.633 1.9-17.399 1.9-6.8 0-12.6-0.634-17.4-1.9-4.834-1.267-7.251-2.784-7.251-4.55z" fill="url(#k)"/>
		<linearGradient id="l" x1="2.7002" x2="56.4" y1="15.475" y2="15.475" gradientUnits="userSpaceOnUse">
			<stop stop-color="#80532E" offset="0"/>
			<stop stop-color="#DD9562" offset=".4471"/>
			<stop stop-color="#80532E" offset="1"/>
		</linearGradient>
		<path d="m12.3 10.35c5.067-1.4 11.2-2.1 18.4-2.1 7.166 0 13.283 0.7 18.35 2.1s7.601 3.1 7.601 5.1-2.534 3.716-7.601 5.15c-5.066 1.4-11.184 2.1-18.35 2.1-7.2 0-13.333-0.7-18.4-2.1-5.066-1.434-7.6-3.15-7.6-5.15s2.533-3.7 7.6-5.1z" fill="url(#l)"/>
		<path d="m27.9 21.85c1.667 0.033 2.833 0.167 3.5 0.4 0.666 0.233 0.433 0.383-0.7 0.45-1.133 0.066-2.9 0.017-5.3-0.15-2.467-0.133-3.85-0.283-4.15-0.45-0.4-0.2 0.317-0.333 2.15-0.4 1.733-0.033 3.233 0.017 4.5 0.15z" fill="#EFC7A4"/>
		<path d="m35 21.9c1.467-0.033 1.934 0.117 1.4 0.45-0.334 0.2-1.067 0.25-2.2 0.15-0.5-0.033-0.634-0.15-0.4-0.35 0.233-0.2 0.634-0.283 1.2-0.25z" fill="#EFC7A4"/>
		<path d="m12.3 10.25c5.067-1.333 11.2-2 18.4-2 7.166 0 13.283 0.667 18.35 2s7.601 2.933 7.601 4.8-2.534 3.467-7.601 4.8c-5.066 1.333-11.184 2-18.35 2-7.2 0-13.333-0.667-18.4-2-5.066-1.333-7.6-2.934-7.6-4.8s2.533-3.467 7.6-4.8z" fill="#A7633C"/>
		<linearGradient id="m" x1="7.3999" x2="54.05" y1="14.75" y2="14.75" gradientUnits="userSpaceOnUse">
			<stop stop-color="#4B2F1B" offset="0"/>
			<stop stop-color="#80532E" offset=".5647"/>
			<stop stop-color="#4B2F1B" offset="1"/>
		</linearGradient>
		<path d="m47.25 11c4.533 1.033 6.8 2.283 6.8 3.75s-2.267 2.717-6.8 3.75c-4.566 1.033-10.066 1.55-16.5 1.55-6.433 0-11.933-0.517-16.5-1.55s-6.85-2.283-6.85-3.75 2.283-2.717 6.85-3.75c4.533-1.033 10.033-1.55 16.5-1.55s11.967 0.517 16.5 1.55z" fill="url(#m)"/>
		<path d="m15.95 12.25c4.566-1.167 9.5-1.75 14.8-1.75s10.233 0.583 14.8 1.75c4.167 1.066 6.851 2.25 8.05 3.55-1.1 1.233-3.783 2.25-8.05 3.05s-9.2 1.2-14.8 1.2-10.533-0.4-14.8-1.2-6.95-1.817-8.05-3.05c1.2-1.3 3.883-2.484 8.05-3.55z" fill="#48331A"/>
		<path d="m14.25 16.9c0-0.1-0.083-0.55-0.25-1.35v-0.15c1.967 0.7 3.9 0.95 5.8 0.75 0.133-0.1 0.184-0.2 0.15-0.3-0.067-0.1-0.133-0.2-0.2-0.3-0.233-0.267-0.35-0.55-0.35-0.85 0.533 0.333 1.4 0.65 2.6 0.95 1.167 0.367 2.95 0.8 5.35 1.3 2.633 0.566 4.284 0.866 4.95 0.9 1.8 0.1 3.5 0.083 5.101-0.05 2.566-0.233 4.233-0.483 5-0.75 0.333-0.1 0.783-0.35 1.35-0.75 0.5-0.1 0.767-0.167 0.8-0.2 0.101-0.067 0.15-0.117 0.15-0.15v-0.2c-0.101-0.067-0.117-0.167-0.05-0.3 0.267-0.034 0.433-0.1 0.5-0.2 0.066-0.133-0.034-0.283-0.301-0.45-0.233-0.133-0.333-0.25-0.3-0.35l0.3 0.1c0.601 0.2 1.301 0.267 2.101 0.2h0.149c-0.1 0.167-0.383 0.433-0.85 0.8l-0.45 0.35c-0.233 0.167-0.35 0.283-0.35 0.35 1.366 0.133 2.35-0.1 2.95-0.7 0.333-0.333 0.366-0.7 0.1-1.1 0.267-0.3 0.184-0.634-0.25-1v-0.05l1.2 0.15h0.2c1 0.4 1.85 0.8 2.55 1.2-0.867 0.3-1.351 0.517-1.45 0.65-0.1 0.167-0.167 0.417-0.2 0.75-0.166 0.167-0.467 0.35-0.899 0.55-0.067 0.066-0.067 0.15 0 0.25l-3.951 0.35c-1.5 0.367-2.617 0.617-3.351 0.75-1.6 0.3-3.399 0.483-5.399 0.55-1.934 0.066-3.7-0.017-5.3-0.25-1.7-0.167-2.75-0.333-3.15-0.5 0.4 0.333 1.233 0.6 2.5 0.8-2.7 0.133-5.583 0.15-8.65 0.05-2.6-0.034-5.2-0.517-7.8-1.45l-0.75-0.3 0.45-0.05z" fill="#3C2B17"/>
		<path d="m46.15 12.4v0.1l0.1 0.1c-0.467-0.133-0.783-0.25-0.95-0.35l0.1-0.05 0.75 0.2z" fill="#3C2B17"/>
		<path d="m14.25 14.25c-0.267 0.367-0.35 0.75-0.25 1.15v0.15c0.167 0.8 0.25 1.25 0.25 1.35l-0.45 0.05c-0.433-0.233-0.7-0.55-0.8-0.95-0.067-0.5 0.1-0.967 0.5-1.4 0.267-0.333 0.767-0.7 1.5-1.1l-0.75 0.75z" fill="#3C2B17"/>
		<path d="m19.5 11.75l-0.05-0.1-0.5-0.05 1.4-0.25-0.7 0.95c-0.667-0.1-1.333-0.083-2 0.05l1.85-0.6z" fill="#3C2B17"/>
		<path d="m7.9 15.8c0.7-0.767 2.017-1.517 3.95-2.25 2.033-0.8 4.4-1.45 7.1-1.95l0.5 0.05 0.05 0.1-4.5 1.75c-0.733 0.4-1.233 0.767-1.5 1.1-0.4 0.433-0.567 0.9-0.5 1.4 0.1 0.4 0.367 0.717 0.8 0.95l0.75 0.3c2.6 0.933 5.2 1.417 7.8 1.45 3.066 0.1 5.95 0.083 8.65-0.05-1.267-0.2-2.1-0.467-2.5-0.8 0.4 0.167 1.45 0.333 3.15 0.5 1.6 0.233 3.366 0.316 5.3 0.25 2-0.067 3.8-0.25 5.399-0.55 0.733-0.133 1.851-0.383 3.351-0.75l2.75-0.15 1.2-0.2c-0.067-0.1-0.067-0.184 0-0.25 0.433-0.2 0.733-0.384 0.899-0.55 0.033-0.333 0.101-0.583 0.2-0.75 0.1-0.133 0.583-0.35 1.45-0.65 0.366 0.2 0.833 0.55 1.399 1.05-1.1 1.233-3.783 2.25-8.05 3.05s-9.2 1.2-14.8 1.2-10.533-0.4-14.8-1.2c-4.265-0.8-6.948-1.817-8.048-3.05z" fill="#2E2112"/>
		<path d="m47.1 14.75l0.051-0.1c0.133-0.4-0.134-0.667-0.801-0.8l-0.699-1.1c1.466 0.467 2.416 1.033 2.85 1.7 0.267 0.4 0.233 0.767-0.1 1.1-0.601 0.6-1.584 0.833-2.95 0.7 0-0.067 0.116-0.184 0.35-0.35l0.45-0.35c0.466-0.367 0.749-0.633 0.849-0.8z" fill="#2E2112"/>
		<path d="m49.65 13.55h-0.2l-1.2-0.15c-1.066-0.066-1.733-0.333-2-0.8l-0.1-0.1v-0.1c1.267 0.333 2.433 0.717 3.5 1.15z" fill="#2E2112"/>
	<linearGradient id="n" x1="13.413" x2="48.388" y1="43.675" y2="43.675" gradientUnits="userSpaceOnUse">
		<stop stop-color="#7A482C" offset="0"/>
		<stop stop-color="#4C2D1C" offset=".6"/>
		<stop stop-color="#75462B" offset="1"/>
	</linearGradient>
	<path d="m41.25 38.15c0.467-0.967 0.85-1.467 1.15-1.5 0.433-0.067 1 0.449 1.699 1.55 0.7 1.166 1.25 1.767 1.65 1.8l0.45-0.05-0.65 6.6-0.449 0.85c-0.466 0.699-1.149 1.333-2.05 1.899-2.833 1.834-7.217 2.75-13.15 2.75h-0.15c-5.933 0-10.317-0.916-13.15-2.75-0.9-0.566-1.583-1.2-2.05-1.899l-0.45-0.85c-0.4-4.267-0.783-8.017-1.15-11.25 0.233 0.767 0.633 1.584 1.2 2.45 0.333 0.5 0.85 1.25 1.55 2.25 0.233 0.333 0.617 0.967 1.15 1.9 0.566 0.8 1.083 1.166 1.55 1.1 0.3-0.033 0.817-0.517 1.55-1.45 0.767-1.066 1.216-1.7 1.35-1.899 0.333-0.5 0.6-0.867 0.8-1.101 0.333-0.399 0.683-0.684 1.05-0.85 0.4 0.333 0.817 0.833 1.25 1.5 0.233 0.399 0.55 0.983 0.95 1.75 0.167 0.233 0.467 0.783 0.9 1.649 0.467 0.801 0.867 1.267 1.2 1.4 0.667 0.3 1.6-0.217 2.8-1.55 0.3-0.334 1.05-1.351 2.25-3.05 0.634-0.9 1.116-1.334 1.45-1.301 0.333 0.034 0.684 0.567 1.05 1.601 0.6 1.666 1.333 3.133 2.2 4.399 0.733-0.1 1.383-0.666 1.95-1.699 0.566-1.2 0.966-2.017 1.199-2.45 0.335-0.699 0.634-1.299 0.901-1.799z" fill="url(#n)"/>
</g>
</svg>